<svg width="52" height="66" viewBox="0 0 52 66" fill="none" xmlns="http://www.w3.org/2000/svg">
<path d="M17 11H11C10.4477 11 10 11.4477 10 12V18C10 18.5523 10.4477 19 11 19H17C17.5523 19 18 18.5523 18 18V12C18 11.4477 17.5523 11 17 11Z" fill="#A5A5A5"/>
<path d="M17 24H11C10.4477 24 10 24.4477 10 25V31C10 31.5523 10.4477 32 11 32H17C17.5523 32 18 31.5523 18 31V25C18 24.4477 17.5523 24 17 24Z" fill="#A5A5A5"/>
<path d="M17 37H11C10.4477 37 10 37.4477 10 38V44C10 44.5523 10.4477 45 11 45H17C17.5523 45 18 44.5523 18 44V38C18 37.4477 17.5523 37 17 37Z" fill="#A5A5A5"/>
<path d="M29 11H23C22.4477 11 22 11.4477 22 12V18C22 18.5523 22.4477 19 23 19H29C29.5523 19 30 18.5523 30 18V12C30 11.4477 29.5523 11 29 11Z" fill="#A5A5A5"/>
<path d="M29 24H23C22.4477 24 22 24.4477 22 25V31C22 31.5523 22.4477 32 23 32H29C29.5523 32 30 31.5523 30 31V25C30 24.4477 29.5523 24 29 24Z" fill="#A5A5A5"/>
<path d="M29 37H23C22.4477 37 22 37.4477 22 38V44C22 44.5523 22.4477 45 23 45H29C29.5523 45 30 44.5523 30 44V38C30 37.4477 29.5523 37 29 37Z" fill="#A5A5A5"/>
<path d="M29 56H23C22.4477 56 22 56.5037 22 57.125V63.875C22 64.4963 22.4477 65 23 65H29C29.5523 65 30 64.4963 30 63.875V57.125C30 56.5037 29.5523 56 29 56Z" fill="#A5A5A5"/>
<path d="M41 11H35C34.4477 11 34 11.4477 34 12V18C34 18.5523 34.4477 19 35 19H41C41.5523 19 42 18.5523 42 18V12C42 11.4477 41.5523 11 41 11Z" fill="#A5A5A5"/>
<path d="M41 24H35C34.4477 24 34 24.4477 34 25V31C34 31.5523 34.4477 32 35 32H41C41.5523 32 42 31.5523 42 31V25C42 24.4477 41.5523 24 41 24Z" fill="#A5A5A5"/>
<path d="M41 37H35C34.4477 37 34 37.4477 34 38V44C34 44.5523 34.4477 45 35 45H41C41.5523 45 42 44.5523 42 44V38C42 37.4477 41.5523 37 41 37Z" fill="#A5A5A5"/>
<rect x="2" y="2" width="48" height="62" rx="4" stroke="#A6A6A6" stroke-width="4" stroke-linejoin="round"/>
<ellipse cx="26" cy="56.5" rx="4" ry="4.5" fill="#A5A5A5"/>
</svg>
