<?xml version="1.0" encoding="UTF-8"?>
<svg width="64" height="64" viewBox="0 0 64 64" fill="none" xmlns="http://www.w3.org/2000/svg">
    <path d="M32 4C16.536 4 4 16.536 4 32C4 47.464 16.536 60 32 60C47.464 60 60 47.464 60 32C60 16.536 47.464 4 32 4ZM32 56C18.745 56 8 45.255 8 32C8 18.745 18.745 8 32 8C45.255 8 56 18.745 56 32C56 45.255 45.255 56 32 56Z" fill="#0A8D48"/>
    <path d="M42 28H36V22C36 20.895 35.105 20 34 20H30C28.895 20 28 20.895 28 22V28H22C20.895 28 20 28.895 20 30V34C20 35.105 20.895 36 22 36H28V42C28 43.105 28.895 44 30 44H34C35.105 44 36 43.105 36 42V36H42C43.105 36 44 35.105 44 34V30C44 28.895 43.105 28 42 28Z" fill="#0A8D48"/>
</svg> 